<?xml version="1.0" encoding="UTF-8" standalone="no"?><svg xmlns="http://www.w3.org/2000/svg" xmlns:xlink="http://www.w3.org/1999/xlink" contentScriptType="application/ecmascript" contentStyleType="text/css" height="323px" preserveAspectRatio="none" style="width:653px;height:323px;" version="1.1" viewBox="0 0 653 323" width="653px" zoomAndPan="magnify"><defs><filter height="300%" id="fjqvkuumtiz6q" width="300%" x="-1" y="-1"><feGaussianBlur result="blurOut" stdDeviation="2.0"/><feColorMatrix in="blurOut" result="blurOut2" type="matrix" values="0 0 0 0 0 0 0 0 0 0 0 0 0 0 0 0 0 0 .4 0"/><feOffset dx="4.0" dy="4.0" in="blurOut2" result="blurOut3"/><feBlend in="SourceGraphic" in2="blurOut3" mode="normal"/></filter></defs><g><!--MD5=[b8d003036a07f2f713ab659b2366a968]
class CopyrightCheck--><rect codeLine="1" fill="#FEFECE" filter="url(#fjqvkuumtiz6q)" height="60.8047" id="CopyrightCheck" style="stroke:#A80036;stroke-width:1.5;" width="290" x="240.5" y="249"/><ellipse cx="333.75" cy="265" fill="#ADD1B2" rx="11" ry="11" style="stroke:#A80036;stroke-width:1.0;"/><path d="M336.0938,260.6719 C335.1563,260.2344 334.5625,260.0938 333.6875,260.0938 C331.0625,260.0938 329.0625,262.1719 329.0625,264.8906 L329.0625,266.0156 C329.0625,268.5938 331.1719,270.4844 334.0625,270.4844 C335.2813,270.4844 336.4375,270.1875 337.1875,269.6406 C337.7656,269.2344 338.0938,268.7813 338.0938,268.3906 C338.0938,267.9375 337.7031,267.5469 337.2344,267.5469 C337.0156,267.5469 336.8125,267.625 336.625,267.8125 C336.1719,268.2969 336.1719,268.2969 335.9844,268.3906 C335.5625,268.6563 334.875,268.7813 334.1094,268.7813 C332.0625,268.7813 330.7656,267.6875 330.7656,265.9844 L330.7656,264.8906 C330.7656,263.1094 332.0156,261.7969 333.75,261.7969 C334.3281,261.7969 334.9375,261.9531 335.4063,262.2031 C335.8906,262.4844 336.0625,262.7031 336.1563,263.1094 C336.2188,263.5156 336.25,263.6406 336.3906,263.7656 C336.5313,263.9063 336.7656,264.0156 336.9844,264.0156 C337.25,264.0156 337.5156,263.875 337.6875,263.6563 C337.7969,263.5 337.8281,263.3125 337.8281,262.8906 L337.8281,261.4688 C337.8281,261.0313 337.8125,260.9063 337.7188,260.75 C337.5625,260.4844 337.2813,260.3438 336.9844,260.3438 C336.6875,260.3438 336.4844,260.4375 336.2656,260.75 L336.0938,260.6719 Z " fill="#000000"/><text fill="#000000" font-family="sans-serif" font-size="12" lengthAdjust="spacing" textLength="95" x="354.25" y="269.1543">CopyrightCheck</text><line style="stroke:#A80036;stroke-width:1.5;" x1="241.5" x2="529.5" y1="281" y2="281"/><line style="stroke:#A80036;stroke-width:1.5;" x1="241.5" x2="529.5" y1="289" y2="289"/><text fill="#000000" font-family="sans-serif" font-size="11" lengthAdjust="spacing" textLength="278" x="246.5" y="303.2104">private String _getCopyright(String absolutePath)</text><!--MD5=[2a912cf6aaa403acd556be8af88a5b5d]
class BaseFileCheck--><rect codeLine="2" fill="#FEFECE" filter="url(#fjqvkuumtiz6q)" height="60.8047" id="BaseFileCheck" style="stroke:#A80036;stroke-width:1.5;" width="508" x="131.5" y="128"/><ellipse cx="338.75" cy="144" fill="#A9DCDF" rx="11" ry="11" style="stroke:#A80036;stroke-width:1.0;"/><path d="M340.8281,145.8125 L341.2188,146.7969 L340.8281,146.7969 C340.375,146.7969 340.2656,146.8125 340.1094,146.9219 C339.8594,147.0781 339.7031,147.3594 339.7031,147.6563 C339.7031,147.9219 339.8438,148.1719 340.0625,148.3281 C340.2031,148.4531 340.4063,148.5 340.8281,148.5 L343.1875,148.5 C343.5469,148.5 343.7656,148.4688 343.9063,148.375 C344.1563,148.2344 344.3125,147.9375 344.3125,147.6563 C344.3125,147.375 344.1719,147.125 343.9531,146.9688 C343.7813,146.8281 343.625,146.7969 343.1563,146.7969 L339.7656,138.5938 L336.0938,138.5938 C335.6406,138.5938 335.5156,138.6094 335.3594,138.7031 C335.1094,138.875 334.9531,139.1563 334.9531,139.4375 C334.9531,139.7188 335.0938,139.9688 335.3125,140.1406 C335.4844,140.25 335.6563,140.2813 336.0938,140.2813 L337.1719,140.2813 L334.5313,146.7969 C334.1094,146.7969 333.9531,146.8125 333.7969,146.9219 C333.5469,147.0781 333.3906,147.3594 333.3906,147.6563 C333.3906,148.2188 333.7656,148.5 334.5156,148.5 L336.7813,148.5 C337.1406,148.5 337.3594,148.4688 337.4844,148.375 C337.75,148.2344 337.8906,147.9375 337.8906,147.6563 C337.8906,147.375 337.7656,147.125 337.5469,146.9531 C337.375,146.8281 337.2344,146.7969 336.7813,146.7969 L336.3906,146.7969 L336.7813,145.8125 L340.8281,145.8125 Z M340.125,144.1094 L337.4531,144.1094 L338.7969,140.8438 L340.125,144.1094 Z " fill="#000000"/><text fill="#000000" font-family="sans-serif" font-size="12" font-style="italic" lengthAdjust="spacing" textLength="85" x="359.25" y="148.1543">BaseFileCheck</text><line style="stroke:#A80036;stroke-width:1.5;" x1="132.5" x2="638.5" y1="160" y2="160"/><line style="stroke:#A80036;stroke-width:1.5;" x1="132.5" x2="638.5" y1="168" y2="168"/><text fill="#000000" font-family="sans-serif" font-size="11" lengthAdjust="spacing" textLength="496" x="137.5" y="182.2104">String doProcess(String fileName, String absolutePath, String content) throws Exception</text><!--MD5=[d460e200ef37111b112fb17aa9893e14]
class FileCheck--><rect codeLine="3" fill="#FEFECE" filter="url(#fjqvkuumtiz6q)" height="48" id="FileCheck" style="stroke:#A80036;stroke-width:1.5;" width="89" x="7" y="134.5"/><ellipse cx="22" cy="150.5" fill="#B4A7E5" rx="11" ry="11" style="stroke:#A80036;stroke-width:1.0;"/><path d="M22.9531,147.2813 L24.6719,147.2813 C25.0625,147.2813 25.25,147.25 25.375,147.1719 C25.6406,147.0156 25.7813,146.7344 25.7813,146.4375 C25.7813,146.1719 25.6719,145.9063 25.4375,145.7344 C25.2656,145.625 25.125,145.5938 24.6719,145.5938 L19.5313,145.5938 C19.0938,145.5938 18.9688,145.6094 18.8125,145.7031 C18.5625,145.8594 18.4063,146.1563 18.4063,146.4375 C18.4063,146.7188 18.5469,146.9688 18.7656,147.1406 C18.9219,147.25 19.1094,147.2813 19.5313,147.2813 L21.25,147.2813 L21.25,153.7969 L19.5313,153.7969 C19.0938,153.7969 18.9688,153.8125 18.8125,153.9219 C18.5625,154.0781 18.4063,154.3594 18.4063,154.6563 C18.4063,154.9063 18.5469,155.1719 18.7656,155.3281 C18.9219,155.4531 19.125,155.5 19.5313,155.5 L24.6719,155.5 C25.4219,155.5 25.7813,155.2188 25.7813,154.6563 C25.7813,154.375 25.6719,154.125 25.4375,153.9531 C25.2656,153.8281 25.125,153.7969 24.6719,153.7969 L22.9531,153.7969 L22.9531,147.2813 Z " fill="#000000"/><text fill="#000000" font-family="sans-serif" font-size="12" font-style="italic" lengthAdjust="spacing" textLength="57" x="36" y="154.6543">FileCheck</text><line style="stroke:#A80036;stroke-width:1.5;" x1="8" x2="95" y1="166.5" y2="166.5"/><line style="stroke:#A80036;stroke-width:1.5;" x1="8" x2="95" y1="174.5" y2="174.5"/><!--MD5=[151e90e5cae9a0ca5f22de952b6f6f1b]
class BaseSourceCheck--><rect codeLine="4" fill="#FEFECE" filter="url(#fjqvkuumtiz6q)" height="60.8047" id="BaseSourceCheck" style="stroke:#A80036;stroke-width:1.5;" width="306" x="232.5" y="7"/><ellipse cx="327.75" cy="23" fill="#A9DCDF" rx="11" ry="11" style="stroke:#A80036;stroke-width:1.0;"/><path d="M329.8281,24.8125 L330.2188,25.7969 L329.8281,25.7969 C329.375,25.7969 329.2656,25.8125 329.1094,25.9219 C328.8594,26.0781 328.7031,26.3594 328.7031,26.6563 C328.7031,26.9219 328.8438,27.1719 329.0625,27.3281 C329.2031,27.4531 329.4063,27.5 329.8281,27.5 L332.1875,27.5 C332.5469,27.5 332.7656,27.4688 332.9063,27.375 C333.1563,27.2344 333.3125,26.9375 333.3125,26.6563 C333.3125,26.375 333.1719,26.125 332.9531,25.9688 C332.7813,25.8281 332.625,25.7969 332.1563,25.7969 L328.7656,17.5938 L325.0938,17.5938 C324.6406,17.5938 324.5156,17.6094 324.3594,17.7031 C324.1094,17.875 323.9531,18.1563 323.9531,18.4375 C323.9531,18.7188 324.0938,18.9688 324.3125,19.1406 C324.4844,19.25 324.6563,19.2813 325.0938,19.2813 L326.1719,19.2813 L323.5313,25.7969 C323.1094,25.7969 322.9531,25.8125 322.7969,25.9219 C322.5469,26.0781 322.3906,26.3594 322.3906,26.6563 C322.3906,27.2188 322.7656,27.5 323.5156,27.5 L325.7813,27.5 C326.1406,27.5 326.3594,27.4688 326.4844,27.375 C326.75,27.2344 326.8906,26.9375 326.8906,26.6563 C326.8906,26.375 326.7656,26.125 326.5469,25.9531 C326.375,25.8281 326.2344,25.7969 325.7813,25.7969 L325.3906,25.7969 L325.7813,24.8125 L329.8281,24.8125 Z M329.125,23.1094 L326.4531,23.1094 L327.7969,19.8438 L329.125,23.1094 Z " fill="#000000"/><text fill="#000000" font-family="sans-serif" font-size="12" font-style="italic" lengthAdjust="spacing" textLength="107" x="348.25" y="27.1543">BaseSourceCheck</text><line style="stroke:#A80036;stroke-width:1.5;" x1="233.5" x2="537.5" y1="39" y2="39"/><line style="stroke:#A80036;stroke-width:1.5;" x1="233.5" x2="537.5" y1="47" y2="47"/><text fill="#000000" font-family="sans-serif" font-size="11" lengthAdjust="spacing" textLength="294" x="238.5" y="61.2104">void addMessage(String fileName, String message)</text><!--MD5=[441223bb18ef62a9ede3bd2ea320cfc8]
class SourceCheck--><rect codeLine="5" fill="#FEFECE" filter="url(#fjqvkuumtiz6q)" height="48" id="SourceCheck" style="stroke:#A80036;stroke-width:1.5;" width="111" x="86" y="13.5"/><ellipse cx="101" cy="29.5" fill="#B4A7E5" rx="11" ry="11" style="stroke:#A80036;stroke-width:1.0;"/><path d="M101.9531,26.2813 L103.6719,26.2813 C104.0625,26.2813 104.25,26.25 104.375,26.1719 C104.6406,26.0156 104.7813,25.7344 104.7813,25.4375 C104.7813,25.1719 104.6719,24.9063 104.4375,24.7344 C104.2656,24.625 104.125,24.5938 103.6719,24.5938 L98.5313,24.5938 C98.0938,24.5938 97.9688,24.6094 97.8125,24.7031 C97.5625,24.8594 97.4063,25.1563 97.4063,25.4375 C97.4063,25.7188 97.5469,25.9688 97.7656,26.1406 C97.9219,26.25 98.1094,26.2813 98.5313,26.2813 L100.25,26.2813 L100.25,32.7969 L98.5313,32.7969 C98.0938,32.7969 97.9688,32.8125 97.8125,32.9219 C97.5625,33.0781 97.4063,33.3594 97.4063,33.6563 C97.4063,33.9063 97.5469,34.1719 97.7656,34.3281 C97.9219,34.4531 98.125,34.5 98.5313,34.5 L103.6719,34.5 C104.4219,34.5 104.7813,34.2188 104.7813,33.6563 C104.7813,33.375 104.6719,33.125 104.4375,32.9531 C104.2656,32.8281 104.125,32.7969 103.6719,32.7969 L101.9531,32.7969 L101.9531,26.2813 Z " fill="#000000"/><text fill="#000000" font-family="sans-serif" font-size="12" font-style="italic" lengthAdjust="spacing" textLength="79" x="115" y="33.6543">SourceCheck</text><line style="stroke:#A80036;stroke-width:1.5;" x1="87" x2="196" y1="45.5" y2="45.5"/><line style="stroke:#A80036;stroke-width:1.5;" x1="87" x2="196" y1="53.5" y2="53.5"/><!--MD5=[5d2b981d435dac5edf8de4ce245ed33d]
reverse link BaseFileCheck to CopyrightCheck--><path codeLine="7" d="M385.5,209.329 C385.5,222.7348 385.5,236.8139 385.5,248.7447 " fill="none" id="BaseFileCheck-backto-CopyrightCheck" style="stroke:#A80036;stroke-width:1.0;"/><polygon fill="none" points="378.5,209.222,385.5,189.222,392.5,209.222,378.5,209.222" style="stroke:#A80036;stroke-width:1.0;"/><!--MD5=[2a076b4d635853c98463306deb3c7e22]
reverse link BaseSourceCheck to BaseFileCheck--><path codeLine="8" d="M385.5,88.329 C385.5,101.735 385.5,115.814 385.5,127.745 " fill="none" id="BaseSourceCheck-backto-BaseFileCheck" style="stroke:#A80036;stroke-width:1.0;"/><polygon fill="none" points="378.5,88.222,385.5,68.222,392.5,88.222,378.5,88.222" style="stroke:#A80036;stroke-width:1.0;"/><!--MD5=[4be9c59c1cc32dde2a63c9502a659713]
reverse link FileCheck to BaseFileCheck--><path codeLine="9" d="M116.44,158.5 C121.366,158.5 126.293,158.5 131.22,158.5 " fill="none" id="FileCheck-backto-BaseFileCheck" style="stroke:#A80036;stroke-width:1.0;"/><polygon fill="none" points="116.186,165.5,96.1855,158.5,116.186,151.5,116.186,165.5" style="stroke:#A80036;stroke-width:1.0;"/><!--MD5=[22e72a1862d9d10feb51cb28a1d7d41f]
reverse link SourceCheck to BaseSourceCheck--><path codeLine="10" d="M217.45,37.5 C222.362,37.5 227.274,37.5 232.186,37.5 " fill="none" id="SourceCheck-backto-BaseSourceCheck" style="stroke:#A80036;stroke-width:1.0;"/><polygon fill="none" points="217.258,44.5,197.258,37.5,217.258,30.5,217.258,44.5" style="stroke:#A80036;stroke-width:1.0;"/><!--MD5=[66af008b27336a8808caf87ce76fa240]
@startuml
class CopyrightCheck
abstract class BaseFileCheck
interface FileCheck
abstract class BaseSourceCheck
interface SourceCheck

BaseFileCheck <|- - CopyrightCheck
BaseSourceCheck <|- - BaseFileCheck
FileCheck <|- BaseFileCheck
SourceCheck <|- BaseSourceCheck

CopyrightCheck : private String _getCopyright(String absolutePath)

BaseFileCheck : String doProcess(String fileName, String absolutePath, String content) throws Exception

BaseSourceCheck : void addMessage(String fileName, String message)
@enduml

PlantUML version 1.2020.27beta6(Unknown compile time)
(GPL source distribution)
Java Runtime: Java(TM) SE Runtime Environment
JVM: Java HotSpot(TM) 64-Bit Server VM
Default Encoding: UTF-8
Language: en
Country: US
--></g></svg>