<?xml version="1.0" encoding="utf-8" ?>
<svg baseProfile="full" height="1665.35429" version="1.1" width="921.25982" xmlns="http://www.w3.org/2000/svg" xmlns:ev="http://www.w3.org/2001/xml-events" xmlns:xlink="http://www.w3.org/1999/xlink"><defs /><rect fill="white" height="1665.35429" opacity="1" stroke-width="0" width="921.25982" x="0.0" y="0.0" /><g><g id="vlines" stroke="lightgray"><line x1="0.0" x2="0.0" y1="70.86614" y2="1629.92122" /><text fill="#800000" font-family="Verdana" font-size="18" font-weight="bold" stroke="#800000" stroke-width="0" x="3.543307" y="35.43307">February</text><text fill="black" font-family="Verdana" font-size="16" font-weight="bold" stroke="black" stroke-width="0" x="3.543307" y="53.149605">05</text><line x1="35.43307" x2="35.43307" y1="70.86614" y2="1629.92122" /><text fill="black" font-family="Verdana" font-size="16" font-weight="bold" stroke="black" stroke-width="0" x="38.976377" y="53.149605">06</text><line x1="70.86614" x2="70.86614" y1="70.86614" y2="1629.92122" /><text fill="black" font-family="Verdana" font-size="16" font-weight="bold" stroke="black" stroke-width="0" x="74.409447" y="53.149605">07</text><line x1="106.29921" x2="106.29921" y1="70.86614" y2="1629.92122" /><text fill="black" font-family="Verdana" font-size="16" font-weight="bold" stroke="black" stroke-width="0" x="109.842517" y="53.149605">08</text><line x1="141.73228" x2="141.73228" y1="70.86614" y2="1629.92122" /><text fill="black" font-family="Verdana" font-size="16" font-weight="bold" stroke="black" stroke-width="0" x="145.275587" y="53.149605">09</text><line x1="177.16535" x2="177.16535" y1="70.86614" y2="1629.92122" /><text fill="#800000" font-family="Verdana" font-size="18" font-weight="bold" stroke="#800000" stroke-width="0" x="180.708657" y="35.43307">March</text><text fill="black" font-family="Verdana" font-size="16" font-weight="bold" stroke="black" stroke-width="0" x="180.708657" y="53.149605">10</text><line x1="212.59842" x2="212.59842" y1="70.86614" y2="1629.92122" /><text fill="black" font-family="Verdana" font-size="16" font-weight="bold" stroke="black" stroke-width="0" x="216.141727" y="53.149605">11</text><line x1="248.03149000000002" x2="248.03149000000002" y1="70.86614" y2="1629.92122" /><text fill="black" font-family="Verdana" font-size="16" font-weight="bold" stroke="black" stroke-width="0" x="251.574797" y="53.149605">12</text><line x1="283.46456" x2="283.46456" y1="70.86614" y2="1629.92122" /><text fill="black" font-family="Verdana" font-size="16" font-weight="bold" stroke="black" stroke-width="0" x="287.007867" y="53.149605">13</text><line x1="318.89763" x2="318.89763" y1="70.86614" y2="1629.92122" /><text fill="#800000" font-family="Verdana" font-size="18" font-weight="bold" stroke="#800000" stroke-width="0" x="322.440937" y="35.43307">April</text><text fill="black" font-family="Verdana" font-size="16" font-weight="bold" stroke="black" stroke-width="0" x="322.440937" y="53.149605">14</text><line x1="354.3307" x2="354.3307" y1="70.86614" y2="1629.92122" /><text fill="black" font-family="Verdana" font-size="16" font-weight="bold" stroke="black" stroke-width="0" x="357.874007" y="53.149605">15</text><line x1="389.76377" x2="389.76377" y1="70.86614" y2="1629.92122" /><text fill="black" font-family="Verdana" font-size="16" font-weight="bold" stroke="black" stroke-width="0" x="393.307077" y="53.149605">16</text><line x1="425.19684" x2="425.19684" y1="70.86614" y2="1629.92122" /><text fill="black" font-family="Verdana" font-size="16" font-weight="bold" stroke="black" stroke-width="0" x="428.740147" y="53.149605">17</text><line x1="460.62991" x2="460.62991" y1="70.86614" y2="1629.92122" /><text fill="#800000" font-family="Verdana" font-size="18" font-weight="bold" stroke="#800000" stroke-width="0" x="464.173217" y="35.43307">May</text><text fill="black" font-family="Verdana" font-size="16" font-weight="bold" stroke="black" stroke-width="0" x="464.173217" y="53.149605">18</text><line x1="496.06298000000004" x2="496.06298000000004" y1="70.86614" y2="1629.92122" /><text fill="black" font-family="Verdana" font-size="16" font-weight="bold" stroke="black" stroke-width="0" x="499.606287" y="53.149605">19</text><line x1="531.49605" x2="531.49605" y1="70.86614" y2="1629.92122" /><text fill="black" font-family="Verdana" font-size="16" font-weight="bold" stroke="black" stroke-width="0" x="535.039357" y="53.149605">20</text><line x1="566.92912" x2="566.92912" y1="70.86614" y2="1629.92122" /><text fill="black" font-family="Verdana" font-size="16" font-weight="bold" stroke="black" stroke-width="0" x="570.472427" y="53.149605">21</text><line x1="602.36219" x2="602.36219" y1="70.86614" y2="1629.92122" /><text fill="black" font-family="Verdana" font-size="16" font-weight="bold" stroke="black" stroke-width="0" x="605.905497" y="53.149605">22</text><line x1="637.79526" x2="637.79526" y1="70.86614" y2="1629.92122" /><text fill="#800000" font-family="Verdana" font-size="18" font-weight="bold" stroke="#800000" stroke-width="0" x="641.338567" y="35.43307">June</text><text fill="black" font-family="Verdana" font-size="16" font-weight="bold" stroke="black" stroke-width="0" x="641.338567" y="53.149605">23</text><line x1="673.22833" x2="673.22833" y1="70.86614" y2="1629.92122" /><text fill="black" font-family="Verdana" font-size="16" font-weight="bold" stroke="black" stroke-width="0" x="676.7716369999999" y="53.149605">24</text><line x1="708.6614" x2="708.6614" y1="70.86614" y2="1629.92122" /><text fill="black" font-family="Verdana" font-size="16" font-weight="bold" stroke="black" stroke-width="0" x="712.204707" y="53.149605">25</text><line x1="744.09447" x2="744.09447" y1="70.86614" y2="1629.92122" /><text fill="black" font-family="Verdana" font-size="16" font-weight="bold" stroke="black" stroke-width="0" x="747.637777" y="53.149605">26</text><line x1="779.52754" x2="779.52754" y1="70.86614" y2="1629.92122" /><text fill="#800000" font-family="Verdana" font-size="18" font-weight="bold" stroke="#800000" stroke-width="0" x="783.070847" y="35.43307">July</text><text fill="black" font-family="Verdana" font-size="16" font-weight="bold" stroke="black" stroke-width="0" x="783.070847" y="53.149605">27</text><line x1="814.96061" x2="814.96061" y1="70.86614" y2="1629.92122" /><text fill="black" font-family="Verdana" font-size="16" font-weight="bold" stroke="black" stroke-width="0" x="818.503917" y="53.149605">28</text><line x1="850.39368" x2="850.39368" y1="70.86614" y2="1629.92122" /><text fill="black" font-family="Verdana" font-size="16" font-weight="bold" stroke="black" stroke-width="0" x="853.936987" y="53.149605">29</text><line x1="885.8267500000001" x2="885.8267500000001" y1="70.86614" y2="1629.92122" /><text fill="black" font-family="Verdana" font-size="16" font-weight="bold" stroke="black" stroke-width="0" x="889.370057" y="53.149605">30</text><line x1="921.25982" x2="921.25982" y1="70.86614" y2="1629.92122" /></g><g id="hlines" stroke="lightgray"><line x1="0.0" x2="921.25982" y1="70.86614" y2="70.86614" /><line x1="0.0" x2="921.25982" y1="106.29921" y2="106.29921" /><line x1="0.0" x2="921.25982" y1="141.73228" y2="141.73228" /><line x1="0.0" x2="921.25982" y1="177.16535" y2="177.16535" /><line x1="0.0" x2="921.25982" y1="212.59842" y2="212.59842" /><line x1="0.0" x2="921.25982" y1="248.03149000000002" y2="248.03149000000002" /><line x1="0.0" x2="921.25982" y1="283.46456" y2="283.46456" /><line x1="0.0" x2="921.25982" y1="318.89763" y2="318.89763" /><line x1="0.0" x2="921.25982" y1="354.3307" y2="354.3307" /><line x1="0.0" x2="921.25982" y1="389.76377" y2="389.76377" /><line x1="0.0" x2="921.25982" y1="425.19684" y2="425.19684" /><line x1="0.0" x2="921.25982" y1="460.62991" y2="460.62991" /><line x1="0.0" x2="921.25982" y1="496.06298000000004" y2="496.06298000000004" /><line x1="0.0" x2="921.25982" y1="531.49605" y2="531.49605" /><line x1="0.0" x2="921.25982" y1="566.92912" y2="566.92912" /><line x1="0.0" x2="921.25982" y1="602.36219" y2="602.36219" /><line x1="0.0" x2="921.25982" y1="637.79526" y2="637.79526" /><line x1="0.0" x2="921.25982" y1="673.22833" y2="673.22833" /><line x1="0.0" x2="921.25982" y1="708.6614" y2="708.6614" /><line x1="0.0" x2="921.25982" y1="744.09447" y2="744.09447" /><line x1="0.0" x2="921.25982" y1="779.52754" y2="779.52754" /><line x1="0.0" x2="921.25982" y1="814.96061" y2="814.96061" /><line x1="0.0" x2="921.25982" y1="850.39368" y2="850.39368" /><line x1="0.0" x2="921.25982" y1="885.8267500000001" y2="885.8267500000001" /><line x1="0.0" x2="921.25982" y1="921.25982" y2="921.25982" /><line x1="0.0" x2="921.25982" y1="956.69289" y2="956.69289" /><line x1="0.0" x2="921.25982" y1="992.1259600000001" y2="992.1259600000001" /><line x1="0.0" x2="921.25982" y1="1027.5590300000001" y2="1027.5590300000001" /><line x1="0.0" x2="921.25982" y1="1062.9921" y2="1062.9921" /><line x1="0.0" x2="921.25982" y1="1098.42517" y2="1098.42517" /><line x1="0.0" x2="921.25982" y1="1133.85824" y2="1133.85824" /><line x1="0.0" x2="921.25982" y1="1169.29131" y2="1169.29131" /><line x1="0.0" x2="921.25982" y1="1204.72438" y2="1204.72438" /><line x1="0.0" x2="921.25982" y1="1240.15745" y2="1240.15745" /><line x1="0.0" x2="921.25982" y1="1275.59052" y2="1275.59052" /><line x1="0.0" x2="921.25982" y1="1311.02359" y2="1311.02359" /><line x1="0.0" x2="921.25982" y1="1346.45666" y2="1346.45666" /><line x1="0.0" x2="921.25982" y1="1381.88973" y2="1381.88973" /><line x1="0.0" x2="921.25982" y1="1417.3228" y2="1417.3228" /><line x1="0.0" x2="921.25982" y1="1452.75587" y2="1452.75587" /><line x1="0.0" x2="921.25982" y1="1488.18894" y2="1488.18894" /><line x1="0.0" x2="921.25982" y1="1523.62201" y2="1523.62201" /><line x1="0.0" x2="921.25982" y1="1559.05508" y2="1559.05508" /><line x1="0.0" x2="921.25982" y1="1594.4881500000001" y2="1594.4881500000001" /><line x1="0.0" x2="921.25982" y1="1629.92122" y2="1629.92122" /></g><line stroke="black" x1="0.0" x2="921.25982" y1="70.86614" y2="70.86614" /><line stroke="black" x1="0.0" x2="921.25982" y1="1629.92122" y2="1629.92122" /></g><g><g><text fill="black" font-family="Verdana" font-size="18" stroke="black" stroke-width="0" x="10.629921" y="95.669289">Automated Copyright And Licensing Compliance</text><rect fill="purple" height="1537.795238" opacity="0.5" stroke="lightgray" stroke-width="0" width="7.086614000000001" x="2.8346456" y="88.582675" /><g><g><text fill="black" font-family="Verdana" font-size="18" stroke="black" stroke-width="0" x="31.889763" y="131.102359">Plan de campagne</text><rect fill="purple" height="226.77164800000003" opacity="0.5" stroke="lightgray" stroke-width="0" width="7.086614000000001" x="24.0944876" y="124.01574500000001" /><g><g id="Write_plan_de_campagne"><rect fill="#FF0018" height="28.346456" opacity="0.85" stroke="#FF0018" stroke-width="2" width="170.078736" x="38.976377" y="145.275587" /><rect fill="#909090" height="10.629921" opacity="0.2" stroke="#FF0018" stroke-width="1" width="170.078736" x="38.976377" y="162.992122" /><text fill="black" font-family="Verdana" font-size="15" stroke="black" stroke-width="0" x="42.519684" y="159.448815">Write plan de campagne</text></g><g id="Revise_plan_de_campagne"><rect fill="#FF0018" height="28.346456" opacity="0.85" stroke="#FF0018" stroke-width="2" width="63.779526" x="216.141727" y="180.708657" /><rect fill="#909090" height="10.629921" opacity="0.2" stroke="#FF0018" stroke-width="1" width="63.779526" x="216.141727" y="198.425192" /><text fill="black" font-family="Verdana" font-size="15" stroke="black" stroke-width="0" x="219.685034" y="194.881885">Revise plan de campagne</text></g><g id="First_draft_plan_de_campagne"><rect fill="#DDDDDD" height="28.346456" opacity="0.85" stroke="#DDDDDD" stroke-width="2" width="28.346456" x="145.275587" y="216.141727" /><rect fill="#909090" height="10.629921" opacity="0.2" stroke="#DDDDDD" stroke-width="1" width="28.346456" x="145.275587" y="233.858262" /><text fill="black" font-family="Verdana" font-size="15" stroke="black" stroke-width="0" x="148.818894" y="230.314955">First draft plan de campagne</text></g><g id="Deadline_plan_de_campagne"><rect fill="#F7A8B8" height="28.346456" opacity="0.85" stroke="#F7A8B8" stroke-width="2" width="28.346456" x="216.141727" y="251.574797" /><rect fill="#909090" height="10.629921" opacity="0.2" stroke="#F7A8B8" stroke-width="1" width="28.346456" x="216.141727" y="269.291332" /><text fill="black" font-family="Verdana" font-size="15" stroke="black" stroke-width="0" x="219.685034" y="265.748025">Deadline plan de campagne</text></g><g id="Second_deadline_plan_de_campagne"><rect fill="#F7A8B8" height="28.346456" opacity="0.85" stroke="#F7A8B8" stroke-width="2" width="28.346456" x="287.007867" y="287.007867" /><rect fill="#909090" height="10.629921" opacity="0.2" stroke="#F7A8B8" stroke-width="1" width="28.346456" x="287.007867" y="304.724402" /><text fill="black" font-family="Verdana" font-size="15" stroke="black" stroke-width="0" x="290.551174" y="301.18109499999997">Second deadline plan de campagne</text></g><g id="Workshop_plan_de_campagne"><rect fill="#55CDFC" height="28.346456" opacity="0.85" stroke="#55CDFC" stroke-width="2" width="28.346456" x="74.409447" y="322.440937" /><rect fill="#909090" height="10.629921" opacity="0.2" stroke="#55CDFC" stroke-width="1" width="28.346456" x="74.409447" y="340.157472" /><text fill="black" font-family="Verdana" font-size="15" stroke="black" stroke-width="0" x="77.952754" y="336.614165">Workshop plan de campagne</text></g></g></g><g><text fill="black" font-family="Verdana" font-size="18" stroke="black" stroke-width="0" x="31.889763" y="379.133849">Research</text><rect fill="purple" height="333.07085800000004" opacity="0.5" stroke="lightgray" stroke-width="0" width="7.086614000000001" x="24.0944876" y="372.047235" /><g><g id="Preliminary_research"><rect fill="#FFA52C" height="28.346456" opacity="0.85" stroke="#FFA52C" stroke-width="2" width="170.078736" x="38.976377" y="393.307077" /><rect fill="#909090" height="10.629921" opacity="0.2" stroke="#FFA52C" stroke-width="1" width="170.078736" x="38.976377" y="411.023612" /><text fill="black" font-family="Verdana" font-size="15" stroke="black" stroke-width="0" x="42.519684" y="407.480305">Preliminary research</text></g><g id="Research_sub-question_1"><rect fill="#FFA52C" height="28.346456" opacity="0.85" stroke="#FFA52C" stroke-width="2" width="28.346456" x="180.708657" y="428.740147" /><rect fill="#909090" height="10.629921" opacity="0.2" stroke="#FFA52C" stroke-width="1" width="28.346456" x="180.708657" y="446.456682" /><text fill="black" font-family="Verdana" font-size="15" stroke="black" stroke-width="0" x="184.251964" y="442.913375">Research sub-question 1</text></g><g id="Research_sub-question_2"><rect fill="#FFA52C" height="28.346456" opacity="0.85" stroke="#FFA52C" stroke-width="2" width="63.779526" x="180.708657" y="464.173217" /><rect fill="#909090" height="10.629921" opacity="0.2" stroke="#FFA52C" stroke-width="1" width="63.779526" x="180.708657" y="481.889752" /><text fill="black" font-family="Verdana" font-size="15" stroke="black" stroke-width="0" x="184.251964" y="478.346445">Research sub-question 2</text></g><g id="Research_sub-question_3"><rect fill="#FFA52C" height="28.346456" opacity="0.85" stroke="#FFA52C" stroke-width="2" width="28.346456" x="216.141727" y="499.606287" /><rect fill="#909090" height="10.629921" opacity="0.2" stroke="#FFA52C" stroke-width="1" width="28.346456" x="216.141727" y="517.322822" /><text fill="black" font-family="Verdana" font-size="15" stroke="black" stroke-width="0" x="219.685034" y="513.779515">Research sub-question 3</text></g><g id="Research_sub-question_4"><rect fill="#FFA52C" height="28.346456" opacity="0.85" stroke="#FFA52C" stroke-width="2" width="63.779526" x="216.141727" y="535.039357" /><rect fill="#909090" height="10.629921" opacity="0.2" stroke="#FFA52C" stroke-width="1" width="63.779526" x="216.141727" y="552.755892" /><text fill="black" font-family="Verdana" font-size="15" stroke="black" stroke-width="0" x="219.685034" y="549.212585">Research sub-question 4</text></g><g id="Research_sub-question_5"><rect fill="#FFA52C" height="28.346456" opacity="0.85" stroke="#FFA52C" stroke-width="2" width="28.346456" x="251.574797" y="570.472427" /><rect fill="#909090" height="10.629921" opacity="0.2" stroke="#FFA52C" stroke-width="1" width="28.346456" x="251.574797" y="588.188962" /><text fill="black" font-family="Verdana" font-size="15" stroke="black" stroke-width="0" x="255.118104" y="584.645655">Research sub-question 5</text></g><g id="Put_it_all_together"><rect fill="#FFA52C" height="28.346456" opacity="0.85" stroke="#FFA52C" stroke-width="2" width="28.346456" x="287.007867" y="605.905497" /><rect fill="#909090" height="10.629921" opacity="0.2" stroke="#FFA52C" stroke-width="1" width="28.346456" x="287.007867" y="623.622032" /><text fill="black" font-family="Verdana" font-size="15" stroke="black" stroke-width="0" x="290.551174" y="620.078725">Put it all together</text></g><g id="Workshop_concluding_and_analysing"><rect fill="#55CDFC" height="28.346456" opacity="0.85" stroke="#55CDFC" stroke-width="2" width="28.346456" x="287.007867" y="641.338567" /><rect fill="#909090" height="10.629921" opacity="0.2" stroke="#55CDFC" stroke-width="1" width="28.346456" x="287.007867" y="659.055102" /><text fill="black" font-family="Verdana" font-size="15" stroke="black" stroke-width="0" x="290.551174" y="655.511795">Workshop concluding and analysing</text></g><g id="Legal_and_Licensing_Workshop"><rect fill="#FFA52C" height="28.346456" opacity="0.85" stroke="#FFA52C" stroke-width="2" width="28.346456" x="393.307077" y="676.7716369999999" /><rect fill="#909090" height="10.629921" opacity="0.2" stroke="#FFA52C" stroke-width="1" width="28.346456" x="393.307077" y="694.488172" /><text fill="black" font-family="Verdana" font-size="15" stroke="black" stroke-width="0" x="396.850384" y="690.944865">Legal and Licensing Workshop</text></g></g></g><g><text fill="black" font-family="Verdana" font-size="18" stroke="black" stroke-width="0" x="31.889763" y="733.464549">Synchronisation</text><rect fill="purple" height="368.50392800000003" opacity="0.5" stroke="lightgray" stroke-width="0" width="7.086614000000001" x="24.0944876" y="726.377935" /><g><g id="Synchronise_with_Matija"><rect fill="#FFFF41" height="28.346456" opacity="0.85" stroke="#FFFF41" stroke-width="2" width="28.346456" x="109.842517" y="747.637777" /><rect fill="#909090" height="10.629921" opacity="0.2" stroke="#FFFF41" stroke-width="1" width="28.346456" x="109.842517" y="765.354312" /><text fill="black" font-family="Verdana" font-size="15" stroke="black" stroke-width="0" x="113.385824" y="761.811005">Synchronise with Matija</text></g><g id="Synchronise_with_Matija"><rect fill="#FFFF41" height="28.346456" opacity="0.85" stroke="#FFFF41" stroke-width="2" width="28.346456" x="180.708657" y="783.070847" /><rect fill="#909090" height="10.629921" opacity="0.2" stroke="#FFFF41" stroke-width="1" width="28.346456" x="180.708657" y="800.787382" /><text fill="black" font-family="Verdana" font-size="15" stroke="black" stroke-width="0" x="184.251964" y="797.244075">Synchronise with Matija</text></g><g id="Synchronise_with_Matija"><rect fill="#FFFF41" height="28.346456" opacity="0.85" stroke="#FFFF41" stroke-width="2" width="28.346456" x="251.574797" y="818.503917" /><rect fill="#909090" height="10.629921" opacity="0.2" stroke="#FFFF41" stroke-width="1" width="28.346456" x="251.574797" y="836.220452" /><text fill="black" font-family="Verdana" font-size="15" stroke="black" stroke-width="0" x="255.118104" y="832.677145">Synchronise with Matija</text></g><g id="Synchronise_with_Matija"><rect fill="#FFFF41" height="28.346456" opacity="0.85" stroke="#FFFF41" stroke-width="2" width="28.346456" x="322.440937" y="853.936987" /><rect fill="#909090" height="10.629921" opacity="0.2" stroke="#FFFF41" stroke-width="1" width="28.346456" x="322.440937" y="871.653522" /><text fill="black" font-family="Verdana" font-size="15" stroke="black" stroke-width="0" x="325.984244" y="868.110215">Synchronise with Matija</text></g><g id="Synchronise_with_Matija"><rect fill="#FFFF41" height="28.346456" opacity="0.85" stroke="#FFFF41" stroke-width="2" width="28.346456" x="393.307077" y="889.370057" /><rect fill="#909090" height="10.629921" opacity="0.2" stroke="#FFFF41" stroke-width="1" width="28.346456" x="393.307077" y="907.086592" /><text fill="black" font-family="Verdana" font-size="15" stroke="black" stroke-width="0" x="396.850384" y="903.543285">Synchronise with Matija</text></g><g id="Synchronise_with_Matija"><rect fill="#FFFF41" height="28.346456" opacity="0.85" stroke="#FFFF41" stroke-width="2" width="28.346456" x="464.173217" y="924.803127" /><rect fill="#909090" height="10.629921" opacity="0.2" stroke="#FFFF41" stroke-width="1" width="28.346456" x="464.173217" y="942.519662" /><text fill="black" font-family="Verdana" font-size="15" stroke="black" stroke-width="0" x="467.716524" y="938.976355">Synchronise with Matija</text></g><g id="Synchronise_with_Matija"><rect fill="#FFFF41" height="28.346456" opacity="0.85" stroke="#FFFF41" stroke-width="2" width="28.346456" x="535.039357" y="960.236197" /><rect fill="#909090" height="10.629921" opacity="0.2" stroke="#FFFF41" stroke-width="1" width="28.346456" x="535.039357" y="977.952732" /><text fill="black" font-family="Verdana" font-size="15" stroke="black" stroke-width="0" x="538.582664" y="974.4094249999999">Synchronise with Matija</text></g><g id="Synchronise_with_Matija"><rect fill="#FFFF41" height="28.346456" opacity="0.85" stroke="#FFFF41" stroke-width="2" width="28.346456" x="605.905497" y="995.669267" /><rect fill="#909090" height="10.629921" opacity="0.2" stroke="#FFFF41" stroke-width="1" width="28.346456" x="605.905497" y="1013.385802" /><text fill="black" font-family="Verdana" font-size="15" stroke="black" stroke-width="0" x="609.448804" y="1009.842495">Synchronise with Matija</text></g><g id="Synchronise_with_Matija"><rect fill="#FFFF41" height="28.346456" opacity="0.85" stroke="#FFFF41" stroke-width="2" width="28.346456" x="676.7716369999999" y="1031.102337" /><rect fill="#909090" height="10.629921" opacity="0.2" stroke="#FFFF41" stroke-width="1" width="28.346456" x="676.7716369999999" y="1048.818872" /><text fill="black" font-family="Verdana" font-size="15" stroke="black" stroke-width="0" x="680.314944" y="1045.275565">Synchronise with Matija</text></g><g id="On-location_meeting_with_Matija_and_Martin"><rect fill="#FFFF41" height="28.346456" opacity="0.85" stroke="#FFFF41" stroke-width="2" width="28.346456" x="357.874007" y="1066.535407" /><rect fill="#909090" height="10.629921" opacity="0.2" stroke="#FFFF41" stroke-width="1" width="28.346456" x="357.874007" y="1084.251942" /><text fill="black" font-family="Verdana" font-size="15" stroke="black" stroke-width="0" x="361.417314" y="1080.708635">On-location meeting with Matija and Martin</text></g></g></g><g><text fill="black" font-family="Verdana" font-size="18" stroke="black" stroke-width="0" x="31.889763" y="1123.228319">Implementation</text><rect fill="purple" height="155.90550800000003" opacity="0.5" stroke="lightgray" stroke-width="0" width="7.086614000000001" x="24.0944876" y="1116.141705" /><g><g id="Create_requirements_analysis"><rect fill="#008018" height="28.346456" opacity="0.85" stroke="#008018" stroke-width="2" width="28.346456" x="322.440937" y="1137.401547" /><rect fill="#909090" height="10.629921" opacity="0.2" stroke="#008018" stroke-width="1" width="28.346456" x="322.440937" y="1155.118082" /><text fill="black" font-family="Verdana" font-size="15" stroke="black" stroke-width="0" x="325.984244" y="1151.574775">Create requirements analysis</text></g><g id="Familiarise_with_tools"><rect fill="#008018" height="28.346456" opacity="0.85" stroke="#008018" stroke-width="2" width="28.346456" x="322.440937" y="1172.834617" /><rect fill="#909090" height="10.629921" opacity="0.2" stroke="#008018" stroke-width="1" width="28.346456" x="322.440937" y="1190.551152" /><text fill="black" font-family="Verdana" font-size="15" stroke="black" stroke-width="0" x="325.984244" y="1187.007845">Familiarise with tools</text></g><g id="Implementation"><rect fill="#008018" height="28.346456" opacity="0.85" stroke="#008018" stroke-width="2" width="311.811016" x="357.874007" y="1208.267687" /><rect fill="#909090" height="10.629921" opacity="0.2" stroke="#008018" stroke-width="1" width="311.811016" x="357.874007" y="1225.984222" /><text fill="black" font-family="Verdana" font-size="15" stroke="black" stroke-width="0" x="361.417314" y="1222.440915">Implementation</text></g><g id="Hand_over_proof-of-concept"><rect fill="#008018" height="28.346456" opacity="0.85" stroke="#008018" stroke-width="2" width="28.346456" x="641.338567" y="1243.700757" /><rect fill="#909090" height="10.629921" opacity="0.2" stroke="#008018" stroke-width="1" width="28.346456" x="641.338567" y="1261.417292" /><text fill="black" font-family="Verdana" font-size="15" stroke="black" stroke-width="0" x="644.881874" y="1257.873985">Hand over proof-of-concept</text></g></g></g><g><text fill="black" font-family="Verdana" font-size="18" stroke="black" stroke-width="0" x="31.889763" y="1300.393669">Reporting</text><rect fill="purple" height="226.77164800000003" opacity="0.5" stroke="lightgray" stroke-width="0" width="7.086614000000001" x="24.0944876" y="1293.307055" /><g><g id="Convert_plan_de_campagne_to_report"><rect fill="#3333f9" height="28.346456" opacity="0.85" stroke="#3333f9" stroke-width="2" width="28.346456" x="180.708657" y="1314.566897" /><rect fill="#909090" height="10.629921" opacity="0.2" stroke="#3333f9" stroke-width="1" width="28.346456" x="180.708657" y="1332.283432" /><text fill="black" font-family="Verdana" font-size="15" stroke="black" stroke-width="0" x="184.251964" y="1328.740125">Convert plan de campagne to report</text></g><g id="Continuous_reporting"><rect fill="#3333f9" height="28.346456" opacity="0.85" stroke="#3333f9" stroke-width="2" width="453.543296" x="180.708657" y="1349.999967" /><rect fill="#909090" height="10.629921" opacity="0.2" stroke="#3333f9" stroke-width="1" width="453.543296" x="180.708657" y="1367.716502" /><text fill="black" font-family="Verdana" font-size="15" stroke="black" stroke-width="0" x="184.251964" y="1364.173195">Continuous reporting</text></g><g id="Wrap_up_report"><rect fill="#3333f9" height="28.346456" opacity="0.85" stroke="#3333f9" stroke-width="2" width="99.212596" x="641.338567" y="1385.433037" /><rect fill="#909090" height="10.629921" opacity="0.2" stroke="#3333f9" stroke-width="1" width="99.212596" x="641.338567" y="1403.149572" /><text fill="black" font-family="Verdana" font-size="15" stroke="black" stroke-width="0" x="644.881874" y="1399.606265">Wrap up report</text></g><g id="Workshop_reporting"><rect fill="#55CDFC" height="28.346456" opacity="0.85" stroke="#55CDFC" stroke-width="2" width="28.346456" x="499.606287" y="1420.866107" /><rect fill="#909090" height="10.629921" opacity="0.2" stroke="#55CDFC" stroke-width="1" width="28.346456" x="499.606287" y="1438.582642" /><text fill="black" font-family="Verdana" font-size="15" stroke="black" stroke-width="0" x="503.149594" y="1435.039335">Workshop reporting</text></g><g id="First_draft_report"><rect fill="#DDDDDD" height="28.346456" opacity="0.85" stroke="#DDDDDD" stroke-width="2" width="28.346456" x="605.905497" y="1456.299177" /><rect fill="#909090" height="10.629921" opacity="0.2" stroke="#DDDDDD" stroke-width="1" width="28.346456" x="605.905497" y="1474.015712" /><text fill="black" font-family="Verdana" font-size="15" stroke="black" stroke-width="0" x="609.448804" y="1470.472405">First draft report</text></g><g id="Deadline_report"><rect fill="#F7A8B8" height="28.346456" opacity="0.85" stroke="#F7A8B8" stroke-width="2" width="28.346456" x="712.204707" y="1491.732247" /><rect fill="#909090" height="10.629921" opacity="0.2" stroke="#F7A8B8" stroke-width="1" width="28.346456" x="712.204707" y="1509.448782" /><text fill="black" font-family="Verdana" font-size="15" stroke="black" stroke-width="0" x="715.748014" y="1505.905475">Deadline report</text></g></g></g><g><text fill="black" font-family="Verdana" font-size="18" stroke="black" stroke-width="0" x="31.889763" y="1548.425159">Presentation</text><rect fill="purple" height="85.039368" opacity="0.5" stroke="lightgray" stroke-width="0" width="7.086614000000001" x="24.0944876" y="1541.338545" /><g><g id="Make_presentation"><rect fill="#86007D" height="28.346456" opacity="0.85" stroke="#86007D" stroke-width="2" width="63.779526" x="747.637777" y="1562.598387" /><rect fill="#909090" height="10.629921" opacity="0.2" stroke="#86007D" stroke-width="1" width="63.779526" x="747.637777" y="1580.314922" /><text fill="black" font-family="Verdana" font-size="15" stroke="black" stroke-width="0" x="751.1810839999999" y="1576.7716149999999">Make presentation</text></g><g id="Presentation_in_Leeuwarden"><rect fill="#FF0000" height="28.346456" opacity="0.85" stroke="#FF0000" stroke-width="2" width="28.346456" x="818.503917" y="1598.031457" /><rect fill="#909090" height="10.629921" opacity="0.2" stroke="#FF0000" stroke-width="1" width="28.346456" x="818.503917" y="1615.747992" /><text fill="black" font-family="Verdana" font-size="15" stroke="black" stroke-width="0" x="822.047224" y="1612.204685">Presentation in Leeuwarden</text></g></g></g></g></g><g><g /><g /><g /><g /><g /><g /></g></g></svg>